<svg width="67" height="44" viewBox="0 0 67 44" fill="none" xmlns="http://www.w3.org/2000/svg">
<path d="M2.256 6.2H5.376V20.36H14.16V23H2.256V6.2ZM24.1665 23.24C22.4545 23.24 20.9105 22.872 19.5345 22.136C18.1585 21.384 17.0785 20.352 16.2945 19.04C15.5105 17.712 15.1185 16.232 15.1185 14.6C15.1185 12.968 15.5105 11.496 16.2945 10.184C17.0785 8.856 18.1585 7.824 19.5345 7.088C20.9105 6.336 22.4545 5.96 24.1665 5.96C25.8785 5.96 27.4225 6.336 28.7985 7.088C30.1745 7.824 31.2545 8.848 32.0385 10.16C32.8225 11.472 33.2145 12.952 33.2145 14.6C33.2145 16.248 32.8225 17.728 32.0385 19.04C31.2545 20.352 30.1745 21.384 28.7985 22.136C27.4225 22.872 25.8785 23.24 24.1665 23.24ZM24.1665 20.504C25.2865 20.504 26.2945 20.256 27.1905 19.76C28.0865 19.248 28.7905 18.544 29.3025 17.648C29.8145 16.736 30.0705 15.72 30.0705 14.6C30.0705 13.48 29.8145 12.472 29.3025 11.576C28.7905 10.664 28.0865 9.96 27.1905 9.464C26.2945 8.952 25.2865 8.696 24.1665 8.696C23.0465 8.696 22.0385 8.952 21.1425 9.464C20.2465 9.96 19.5425 10.664 19.0305 11.576C18.5185 12.472 18.2625 13.48 18.2625 14.6C18.2625 15.72 18.5185 16.736 19.0305 17.648C19.5425 18.544 20.2465 19.248 21.1425 19.76C22.0385 20.256 23.0465 20.504 24.1665 20.504ZM51.3426 6.2L44.0226 23H40.9506L33.6066 6.2H36.9906L42.5826 19.16L48.2226 6.2H51.3426ZM65.7154 20.384V23H53.1154V6.2H65.3794V8.816H56.2354V13.184H64.3474V15.752H56.2354V20.384H65.7154Z" fill="black"/>
<path d="M18.12 25.28C19.704 25.28 20.944 25.736 21.84 26.648C22.752 27.56 23.208 28.904 23.208 30.68V38H21.504V30.848C21.504 29.536 21.184 28.536 20.544 27.848C19.92 27.16 19.032 26.816 17.88 26.816C16.568 26.816 15.536 27.224 14.784 28.04C14.032 28.84 13.656 29.952 13.656 31.376V38H11.952V30.848C11.952 29.536 11.632 28.536 10.992 27.848C10.368 27.16 9.472 26.816 8.304 26.816C7.008 26.816 5.976 27.224 5.208 28.04C4.456 28.84 4.08 29.952 4.08 31.376V38H2.376V25.376H4.008V27.68C4.456 26.912 5.08 26.32 5.88 25.904C6.68 25.488 7.6 25.28 8.64 25.28C9.696 25.28 10.608 25.504 11.376 25.952C12.16 26.4 12.744 27.064 13.128 27.944C13.592 27.112 14.256 26.464 15.12 26C16 25.52 17 25.28 18.12 25.28ZM38.868 32.216H28.308C28.404 33.528 28.908 34.592 29.82 35.408C30.732 36.208 31.884 36.608 33.276 36.608C34.06 36.608 34.78 36.472 35.436 36.2C36.092 35.912 36.66 35.496 37.14 34.952L38.1 36.056C37.54 36.728 36.836 37.24 35.988 37.592C35.156 37.944 34.236 38.12 33.228 38.12C31.932 38.12 30.78 37.848 29.772 37.304C28.78 36.744 28.004 35.976 27.444 35C26.884 34.024 26.604 32.92 26.604 31.688C26.604 30.456 26.868 29.352 27.396 28.376C27.94 27.4 28.676 26.64 29.604 26.096C30.548 25.552 31.604 25.28 32.772 25.28C33.94 25.28 34.988 25.552 35.916 26.096C36.844 26.64 37.572 27.4 38.1 28.376C38.628 29.336 38.892 30.44 38.892 31.688L38.868 32.216ZM32.772 26.744C31.556 26.744 30.532 27.136 29.7 27.92C28.884 28.688 28.42 29.696 28.308 30.944H37.26C37.148 29.696 36.676 28.688 35.844 27.92C35.028 27.136 34.004 26.744 32.772 26.744Z" fill="black"/>
</svg>
