<svg width="295" height="65" viewBox="0 0 295 65" fill="none" xmlns="http://www.w3.org/2000/svg">
<circle cx="136.5" cy="32.5" r="4.5" fill="#DEE2E4"/>
<circle cx="224.5" cy="32.5" r="4.5" fill="#DEE2E4"/>
<circle cx="48.5" cy="32.5" r="4.5" fill="#DEE2E4"/>
<circle cx="136.5" cy="4.5" r="4.5" fill="#DEE2E4"/>
<circle cx="224.5" cy="4.5" r="4.5" fill="#DEE2E4"/>
<circle cx="48.5" cy="4.5" r="4.5" fill="#DEE2E4"/>
<circle cx="136.5" cy="60.5" r="4.5" fill="#DEE2E4"/>
<circle cx="224.5" cy="60.5" r="4.5" fill="#DEE2E4"/>
<circle cx="48.5" cy="60.5" r="4.5" fill="#DEE2E4"/>
<circle cx="158.5" cy="32.5" r="4.5" fill="#DEE2E4"/>
<circle cx="246.5" cy="32.5" r="4.5" fill="#DEE2E4"/>
<circle cx="70.5" cy="32.5" r="4.5" fill="#DEE2E4"/>
<circle cx="158.5" cy="4.5" r="4.5" fill="#DEE2E4"/>
<circle cx="246.5" cy="4.5" r="4.5" fill="#DEE2E4"/>
<circle cx="70.5" cy="4.5" r="4.5" fill="#DEE2E4"/>
<circle cx="158.5" cy="60.5" r="4.5" fill="#DEE2E4"/>
<circle cx="246.5" cy="60.5" r="4.5" fill="#DEE2E4"/>
<circle cx="70.5" cy="60.5" r="4.5" fill="#DEE2E4"/>
<circle cx="180.5" cy="32.5" r="4.5" fill="#DEE2E4"/>
<circle cx="4.5" cy="32.5" r="4.5" fill="#DEE2E4"/>
<circle cx="268.5" cy="32.5" r="4.5" fill="#DEE2E4"/>
<circle cx="92.5" cy="32.5" r="4.5" fill="#DEE2E4"/>
<circle cx="180.5" cy="4.5" r="4.5" fill="#DEE2E4"/>
<circle cx="4.5" cy="4.5" r="4.5" fill="#DEE2E4"/>
<circle cx="268.5" cy="4.5" r="4.5" fill="#DEE2E4"/>
<circle cx="92.5" cy="4.5" r="4.5" fill="#DEE2E4"/>
<circle cx="180.5" cy="60.5" r="4.5" fill="#DEE2E4"/>
<circle cx="4.5" cy="60.5" r="4.5" fill="#DEE2E4"/>
<circle cx="268.5" cy="60.5" r="4.5" fill="#DEE2E4"/>
<circle cx="92.5" cy="60.5" r="4.5" fill="#DEE2E4"/>
<circle cx="202.5" cy="32.5" r="4.5" fill="#DEE2E4"/>
<circle cx="26.5" cy="32.5" r="4.5" fill="#DEE2E4"/>
<circle cx="290.5" cy="32.5" r="4.5" fill="#DEE2E4"/>
<circle cx="114.5" cy="32.5" r="4.5" fill="#DEE2E4"/>
<circle cx="202.5" cy="4.5" r="4.5" fill="#DEE2E4"/>
<circle cx="26.5" cy="4.5" r="4.5" fill="#DEE2E4"/>
<circle cx="290.5" cy="4.5" r="4.5" fill="#DEE2E4"/>
<circle cx="114.5" cy="4.5" r="4.5" fill="#DEE2E4"/>
<circle cx="202.5" cy="60.5" r="4.5" fill="#DEE2E4"/>
<circle cx="26.5" cy="60.5" r="4.5" fill="#DEE2E4"/>
<circle cx="290.5" cy="60.5" r="4.5" fill="#DEE2E4"/>
<circle cx="114.5" cy="60.5" r="4.5" fill="#DEE2E4"/>
</svg>
