<?xml version="1.0" encoding="iso-8859-1"?>
<!-- Generator: Adobe Illustrator 19.0.0, SVG Export Plug-In . SVG Version: 6.00 Build 0)  -->
<svg version="1.1" id="Capa_1" xmlns="http://www.w3.org/2000/svg" xmlns:xlink="http://www.w3.org/1999/xlink" x="0px" y="0px"
	 viewBox="0 0 511.999 511.999" style="enable-background:new 0 0 511.999 511.999;" xml:space="preserve">
<g>
	<g>
		<path d="M489.125,222.281v-87.523c0-4.142-3.357-7.499-7.499-7.499h-43.082c0.382-19.058-1.397-38.02-5.215-55.279
			c-0.896-4.043-4.895-6.595-8.942-5.702c-4.043,0.895-6.597,4.897-5.702,8.942c3.529,15.954,5.214,34.186,4.853,52.04h-111.54
			c0.031-0.692,0.063-19.784,0.063-19.784c5.786-5.19,24.375-20.185,45.128-19.288c4.131,0.166,7.637-3.028,7.818-7.166
			c0.18-4.137-3.028-7.638-7.166-7.818c-20.154-0.889-37.86,9.257-48.347,17.029c-3.696-10.707-11.157-19.666-20.799-25.297
			c8.902-9.997,23.862-25.253,40.888-36.235c24.572-15.851,45.352-17.834,61.762-5.898c6.794,4.94,12.783,12.837,17.803,23.468
			c1.769,3.744,6.24,5.346,9.983,3.579c3.745-1.769,5.348-6.237,3.58-9.983c-6.105-12.933-13.69-22.755-22.544-29.193
			c-48.017-34.927-106.417,25.088-126.493,48.671c-2.789-0.518-5.658-0.802-8.595-0.802h-19.657c-2.481,0-4.916,0.197-7.294,0.569
			c-20.251-23.746-78.408-83.264-126.298-48.438c-27.98,20.35-39.21,71.829-38.364,116.587H30.373c-4.142,0-7.499,3.357-7.499,7.499
			v87.523c0,0.013-0.002,0.026-0.002,0.039s0.002,0.026,0.002,0.039v35.467c0,4.142,3.357,7.499,7.499,7.499h16.706v60.361
			c0,4.142,3.357,7.499,7.499,7.499c4.142,0,7.499-3.357,7.499-7.499v-60.361h142.064V430.38c0,3.062,1.861,5.814,4.7,6.957
			c2.842,1.144,6.09,0.444,8.209-1.765L256,394.983l38.95,40.589c1.442,1.503,3.408,2.307,5.412,2.307
			c0.94,0,1.89-0.177,2.797-0.542c2.84-1.143,4.7-3.895,4.7-6.957v-79.477c0-4.142-3.357-7.499-7.499-7.499
			c-4.142,0-7.499,3.357-7.499,7.499v60.833l-31.451-32.774c-1.414-1.474-3.368-2.307-5.41-2.307c-2.043,0-3.996,0.833-5.41,2.307
			l-31.451,32.774V265.743h29.362v78.569c0,4.142,3.357,7.499,7.499,7.499c4.142,0,7.499-3.357,7.499-7.499v-78.569h29.362v55.283
			c0,4.142,3.357,7.499,7.499,7.499c4.142,0,7.499-3.357,7.499-7.499v-55.701h142.064v231.677H62.076V357.741
			c0-4.142-3.357-7.499-7.499-7.499c-4.142,0-7.499,3.357-7.499,7.499V504.5c0,4.142,3.357,7.499,7.499,7.499h402.844
			c4.142,0,7.499-3.357,7.499-7.499V265.325h16.706c4.142,0,7.499-3.357,7.499-7.499v-35.467c0.001-0.013,0.002-0.026,0.002-0.039
			S489.125,222.294,489.125,222.281z M192.181,250.327H37.872v-20.508h154.31V250.327z M192.181,214.821H37.872v-72.563h154.31
			V214.821z M203.343,84.653c-10.52-5.108-30.799-11.756-61.326-8.44c-4.117,0.447-7.093,4.147-6.645,8.265
			c0.446,4.115,4.141,7.104,8.265,6.645c29.715-3.224,47.939,4.172,55.235,8.102c-0.277,2.06-0.434,4.156-0.434,6.29v15.743
			c-2.202,1.445-5.624,3.56-10.184,6.001H88.462c-1.057-47.308,11.814-89.639,32.188-104.456
			c16.413-11.935,37.196-9.95,61.766,5.896c16.718,10.782,31.43,25.669,40.379,35.665C214.426,68.982,207.614,76.078,203.343,84.653
			z M248.501,250.327h-41.321V142.258h41.321V250.327z M213.505,127.259c-0.044-0.691-0.07-21.744-0.07-21.744
			c0-17.632,14.349-31.975,31.986-31.975c0,0,19.657,0,19.657,0c17.638,0,31.986,14.344,31.986,31.975c0,0-0.026,21.053-0.07,21.744
			H213.505z M304.82,250.327h-41.321V142.258h41.321V250.327z M474.127,250.327h-154.31v-20.508h154.31V250.327z M319.818,214.821
			v-72.563h154.31v72.563H319.818z"/>
	</g>
</g>
<g>
	<g>
		<path d="M423.809,426.088h-72.724c-4.142,0-7.499,3.357-7.499,7.499v36.675c0,4.142,3.357,7.499,7.499,7.499h72.724
			c4.142,0,7.499-3.357,7.499-7.499v-36.675C431.308,429.445,427.952,426.088,423.809,426.088z M416.31,462.764h-57.726v-21.677
			h57.726V462.764z"/>
	</g>
</g>
<g>
</g>
<g>
</g>
<g>
</g>
<g>
</g>
<g>
</g>
<g>
</g>
<g>
</g>
<g>
</g>
<g>
</g>
<g>
</g>
<g>
</g>
<g>
</g>
<g>
</g>
<g>
</g>
<g>
</g>
</svg>
